<?xml version="1.0" encoding="UTF-8"?>
<!DOCTYPE svg PUBLIC "-//W3C//DTD SVG 1.1//EN" "http://www.w3.org/Graphics/SVG/1.1/DTD/svg11.dtd">
<svg xmlns="http://www.w3.org/2000/svg" version="1.1" width="1300px" height="1392px" style="shape-rendering:geometricPrecision; text-rendering:geometricPrecision; image-rendering:optimizeQuality; fill-rule:evenodd; clip-rule:evenodd" xmlns:xlink="http://www.w3.org/1999/xlink">
<g><path style="opacity:1" fill="#945841" d="M 1121.5,519.5 C 1080.07,522.135 1039.41,518.302 999.5,508C 1010.6,520.106 1022.6,531.106 1035.5,541C 978.338,525.143 929.172,495.976 888,453.5C 861.979,424.125 844.979,390.125 837,351.5C 795.529,398.339 745.029,431.839 685.5,452C 652.846,463.654 619.513,472.988 585.5,480C 542.291,488.368 499.291,497.702 456.5,508C 430.916,514.528 406.583,524.194 383.5,537C 372.456,544.371 362.29,552.871 353,562.5C 337.847,529.308 334.514,494.975 343,459.5C 345.113,453.156 347.613,446.989 350.5,441C 310.537,454.29 281.037,479.79 262,517.5C 252.662,541.197 248.995,565.864 251,591.5C 225.261,574.437 201.928,554.437 181,531.5C 167.453,515.406 158.453,497.073 154,476.5C 152.357,463.682 153.857,451.349 158.5,439.5C 163.592,432.903 169.259,426.737 175.5,421C 195.598,403.78 217.265,388.78 240.5,376C 255.833,368 271.167,360 286.5,352C 266.627,348.089 250.293,338.422 237.5,323C 293.782,326.406 349.782,323.406 405.5,314C 442.45,307.675 479.45,301.675 516.5,296C 605.595,284.77 694.928,282.436 784.5,289C 799.606,290.067 814.606,291.901 829.5,294.5C 839.48,306.315 849.647,317.981 860,329.5C 879.569,321.309 899.236,313.309 919,305.5C 959.589,318.353 997.755,336.186 1033.5,359C 1088.7,397.875 1118.04,451.375 1121.5,519.5 Z"/></g>
<g><path style="opacity:1" fill="#6e4436" d="M 758.5,324.5 C 760.379,324.393 760.712,324.893 759.5,326C 697.598,369.421 628.932,395.754 553.5,405C 475.07,413.656 396.404,416.989 317.5,415C 385.049,408.978 452.382,400.978 519.5,391C 589.296,380.218 657.296,362.885 723.5,339C 735.469,334.629 747.136,329.796 758.5,324.5 Z"/></g>
<g><path style="opacity:1" fill="#6f4537" d="M 1121.5,519.5 C 1123,530.119 1123.5,540.786 1123,551.5C 1118.73,560.377 1114.23,569.044 1109.5,577.5C 1105.47,582.875 1101.81,588.541 1098.5,594.5C 1092.6,602.623 1086.93,610.956 1081.5,619.5C 1065.29,639.049 1047.96,657.716 1029.5,675.5C 996.128,638.318 956.128,610.818 909.5,593C 916.833,603.695 923.167,614.528 928.5,625.5C 901.622,613.73 875.955,599.897 851.5,584C 850.207,583.51 848.873,583.343 847.5,583.5C 847.611,582.883 847.944,582.383 848.5,582C 842.776,578.147 837.109,574.313 831.5,570.5C 807.436,550.94 787.936,527.606 773,500.5C 767.39,488.944 761.557,477.611 755.5,466.5C 740.059,481.447 723.059,494.28 704.5,505C 693.833,510.667 683.167,516.333 672.5,522C 632.474,539.846 593.474,559.513 555.5,581C 548.589,585.61 541.922,590.443 535.5,595.5C 529.562,599.106 524.229,603.439 519.5,608.5C 510.468,616.365 502.301,625.032 495,634.5C 493.08,631.661 491.413,628.661 490,625.5C 486.094,613.936 481.927,602.603 477.5,591.5C 478.124,591.083 478.457,590.416 478.5,589.5C 477.282,583.527 476.282,577.527 475.5,571.5C 474.101,562.23 473.268,552.896 473,543.5C 467.974,550.893 462.474,557.893 456.5,564.5C 451.134,568.541 446.134,572.874 441.5,577.5C 416.61,590.615 392.276,604.782 368.5,620C 361.723,624.94 355.39,630.44 349.5,636.5C 352.977,637.167 356.311,637.834 359.5,638.5C 354.12,638.324 348.787,638.658 343.5,639.5C 343.611,638.883 343.944,638.383 344.5,638C 331.697,625.87 321.197,612.037 313,596.5C 309.128,580.808 305.128,565.141 301,549.5C 300.837,560.648 298.504,571.314 294,581.5C 289.842,590.485 285.175,599.152 280,607.5C 265.608,628.228 251.608,649.228 238,670.5C 229.618,683.642 225.285,697.975 225,713.5C 215.633,703.302 206.133,693.302 196.5,683.5C 190.209,674.543 183.543,665.876 176.5,657.5C 171.485,648.798 166.485,640.131 161.5,631.5C 153.058,614.94 146.558,597.607 142,579.5C 135.897,552.151 129.73,524.818 123.5,497.5C 131.625,475.897 143.292,456.564 158.5,439.5C 153.857,451.349 152.357,463.682 154,476.5C 158.453,497.073 167.453,515.406 181,531.5C 201.928,554.437 225.261,574.437 251,591.5C 248.995,565.864 252.662,541.197 262,517.5C 281.037,479.79 310.537,454.29 350.5,441C 347.613,446.989 345.113,453.156 343,459.5C 334.514,494.975 337.847,529.308 353,562.5C 362.29,552.871 372.456,544.371 383.5,537C 406.583,524.194 430.916,514.528 456.5,508C 499.291,497.702 542.291,488.368 585.5,480C 619.513,472.988 652.846,463.654 685.5,452C 745.029,431.839 795.529,398.339 837,351.5C 844.979,390.125 861.979,424.125 888,453.5C 929.172,495.976 978.338,525.143 1035.5,541C 1022.6,531.106 1010.6,520.106 999.5,508C 1039.41,518.302 1080.07,522.135 1121.5,519.5 Z"/></g>
<g><path style="opacity:1" fill="#6e4436" d="M 786.5,351.5 C 787.239,351.369 787.906,351.536 788.5,352C 754.469,395.376 710.469,423.71 656.5,437C 609.228,447.325 561.561,455.325 513.5,461C 467.691,466.942 424.358,480.275 383.5,501C 395.622,488.102 409.955,478.435 426.5,472C 444.997,465.723 463.664,460.056 482.5,455C 530.013,445.098 577.347,434.431 624.5,423C 668.66,411.75 710.993,395.75 751.5,375C 763.922,368.135 775.589,360.301 786.5,351.5 Z"/></g>
<g><path style="opacity:1" fill="#6e4436" d="M 891.5,358.5 C 911.428,404.604 943.762,439.437 988.5,463C 1021.17,479.333 1055.5,490.666 1091.5,497C 1048.86,497.338 1007.86,489.338 968.5,473C 946.617,463.312 927.45,449.812 911,432.5C 893.266,410.903 886.766,386.236 891.5,358.5 Z"/></g>
<g><path style="opacity:1" fill="#c1a0d2" d="M 831.5,570.5 C 804.964,580.765 778.631,591.599 752.5,603C 743.521,609.458 737.354,617.958 734,628.5C 722.229,684.813 726.562,739.813 747,793.5C 768.443,839.943 802.276,874.109 848.5,896C 884.236,912.476 921.736,921.642 961,923.5C 1013.36,922.815 1057.03,903.149 1092,864.5C 1096.71,931.078 1098.87,997.745 1098.5,1064.5C 1098.83,1075.35 1098.49,1086.01 1097.5,1096.5C 1054.2,1076.51 1009.2,1061.51 962.5,1051.5C 956.521,1044.85 950.188,1038.52 943.5,1032.5C 940.894,1031.35 938.227,1031.18 935.5,1032C 927.754,1033.53 920.088,1035.36 912.5,1037.5C 909.848,1037.41 907.515,1038.08 905.5,1039.5C 904.167,1039.5 902.833,1039.5 901.5,1039.5C 855.644,1031.27 809.31,1025.77 762.5,1023C 724.193,1020.97 685.86,1019.8 647.5,1019.5C 523.341,1018.64 400.008,1028.14 277.5,1048C 247.238,1053.75 217.238,1060.59 187.5,1068.5C 186.219,995.346 189.052,922.346 196,849.5C 246.104,911.98 310.271,933.814 388.5,915C 507.155,887.352 568.155,812.685 571.5,691C 572.094,667.804 569.594,644.971 564,622.5C 558.167,609.497 548.667,600.497 535.5,595.5C 541.922,590.443 548.589,585.61 555.5,581C 593.474,559.513 632.474,539.846 672.5,522C 683.167,516.333 693.833,510.667 704.5,505C 723.059,494.28 740.059,481.447 755.5,466.5C 761.557,477.611 767.39,488.944 773,500.5C 787.936,527.606 807.436,550.94 831.5,570.5 Z"/></g>
<g><path style="opacity:1" fill="#bd9ccc" d="M 475.5,571.5 C 469.244,568.97 462.91,566.637 456.5,564.5C 462.474,557.893 467.974,550.893 473,543.5C 473.268,552.896 474.101,562.23 475.5,571.5 Z"/></g>
<g><path style="opacity:1" fill="#fefefe" d="M 343.5,639.5 C 323.835,643.425 310.335,654.758 303,673.5C 300.487,702.98 313.32,722.146 341.5,731C 363.705,733.459 378.872,724.292 387,703.5C 394.939,686.077 394.272,669.077 385,652.5C 378.545,644.024 370.045,639.358 359.5,638.5C 356.311,637.834 352.977,637.167 349.5,636.5C 355.39,630.44 361.723,624.94 368.5,620C 392.276,604.782 416.61,590.615 441.5,577.5C 453.5,582.167 465.5,586.833 477.5,591.5C 481.927,602.603 486.094,613.936 490,625.5C 491.413,628.661 493.08,631.661 495,634.5C 502.301,625.032 510.468,616.365 519.5,608.5C 525.929,611.036 532.263,613.869 538.5,617C 542.877,621.043 546.044,625.876 548,631.5C 555.313,669.82 555.313,708.154 548,746.5C 529.644,820.024 484.144,867.69 411.5,889.5C 377.51,894.206 344.843,889.373 313.5,875C 279.025,858.194 249.525,835.027 225,805.5C 201.346,768.212 191.846,727.545 196.5,683.5C 206.133,693.302 215.633,703.302 225,713.5C 225.285,697.975 229.618,683.642 238,670.5C 251.608,649.228 265.608,628.228 280,607.5C 285.175,599.152 289.842,590.485 294,581.5C 298.504,571.314 300.837,560.648 301,549.5C 305.128,565.141 309.128,580.808 313,596.5C 321.197,612.037 331.697,625.87 344.5,638C 343.944,638.383 343.611,638.883 343.5,639.5 Z"/></g>
<g><path style="opacity:1" fill="#1e1d1b" d="M 456.5,564.5 C 462.91,566.637 469.244,568.97 475.5,571.5C 476.282,577.527 477.282,583.527 478.5,589.5C 478.457,590.416 478.124,591.083 477.5,591.5C 465.5,586.833 453.5,582.167 441.5,577.5C 446.134,572.874 451.134,568.541 456.5,564.5 Z"/></g>
<g><path style="opacity:0.986" fill="#1c1c1b" d="M 831.5,570.5 C 837.109,574.313 842.776,578.147 848.5,582C 847.944,582.383 847.611,582.883 847.5,583.5C 820.151,594.229 792.817,605.062 765.5,616C 759.277,619.223 754.777,624.057 752,630.5C 740.898,681.361 743.898,731.361 761,780.5C 780.295,826.796 812.795,860.296 858.5,881C 867.536,885.354 876.869,888.854 886.5,891.5C 924.853,906.362 964.186,909.195 1004.5,900C 1054.98,882.528 1091.14,849.361 1113,800.5C 1136.72,742.076 1137.39,683.409 1115,624.5C 1110.23,613.956 1104.73,603.956 1098.5,594.5C 1101.81,588.541 1105.47,582.875 1109.5,577.5C 1142.87,627.475 1155.7,682.475 1148,742.5C 1143.4,779.32 1130.73,812.987 1110,843.5C 1111.07,869.494 1112.4,895.494 1114,921.5C 1119.45,1066.63 1120.78,1211.96 1118,1357.5C 1117.48,1367.22 1116.48,1376.89 1115,1386.5C 1113.98,1388.69 1112.48,1390.35 1110.5,1391.5C 1109.17,1391.5 1107.83,1391.5 1106.5,1391.5C 1108.1,1295.5 1109.26,1199.5 1110,1103.5C 1106,1101.76 1102.5,1099.43 1099.5,1096.5C 1099.83,1085.65 1099.49,1074.99 1098.5,1064.5C 1098.87,997.745 1096.71,931.078 1092,864.5C 1057.03,903.149 1013.36,922.815 961,923.5C 921.736,921.642 884.236,912.476 848.5,896C 802.276,874.109 768.443,839.943 747,793.5C 726.562,739.813 722.229,684.813 734,628.5C 737.354,617.958 743.521,609.458 752.5,603C 778.631,591.599 804.964,580.765 831.5,570.5 Z"/></g>
<g><path style="opacity:1" fill="#fefefe" d="M 847.5,583.5 C 848.873,583.343 850.207,583.51 851.5,584C 875.955,599.897 901.622,613.73 928.5,625.5C 923.167,614.528 916.833,603.695 909.5,593C 956.128,610.818 996.128,638.318 1029.5,675.5C 1047.96,657.716 1065.29,639.049 1081.5,619.5C 1110.41,674.619 1111.91,730.619 1086,787.5C 1076.55,805.632 1064.05,821.466 1048.5,835C 1023.2,858.661 993.865,875.661 960.5,886C 937.645,892.676 914.479,894.176 891,890.5C 889.56,891.148 888.06,891.481 886.5,891.5C 876.869,888.854 867.536,885.354 858.5,881C 812.795,860.296 780.295,826.796 761,780.5C 743.898,731.361 740.898,681.361 752,630.5C 754.777,624.057 759.277,619.223 765.5,616C 792.817,605.062 820.151,594.229 847.5,583.5 Z"/></g>
<g><path style="opacity:0.997" fill="#1a1a1a" d="M 535.5,595.5 C 548.667,600.497 558.167,609.497 564,622.5C 569.594,644.971 572.094,667.804 571.5,691C 568.155,812.685 507.155,887.352 388.5,915C 310.271,933.814 246.104,911.98 196,849.5C 189.052,922.346 186.219,995.346 187.5,1068.5C 217.238,1060.59 247.238,1053.75 277.5,1048C 400.008,1028.14 523.341,1018.64 647.5,1019.5C 647.5,1039.5 647.5,1059.5 647.5,1079.5C 640.313,1079.18 633.313,1079.51 626.5,1080.5C 622.638,1081.52 619.805,1083.86 618,1087.5C 617.501,1092.82 617.334,1098.16 617.5,1103.5C 604.829,1103.33 592.162,1103.5 579.5,1104C 575.725,1105.44 572.892,1107.94 571,1111.5C 570.501,1116.82 570.334,1122.16 570.5,1127.5C 565.489,1127.33 560.489,1127.5 555.5,1128C 551.315,1129.69 548.315,1132.52 546.5,1136.5C 546.667,1113.16 546.5,1089.83 546,1066.5C 541.99,1060.02 536.157,1057.69 528.5,1059.5C 501.498,1059.33 474.498,1059.5 447.5,1060C 444.667,1061.5 442.5,1063.67 441,1066.5C 440.5,1078.5 440.333,1090.5 440.5,1102.5C 419.646,1099.15 398.646,1097.32 377.5,1097C 360.261,1093.87 342.927,1091.87 325.5,1091C 302.364,1115.8 290.697,1145.3 290.5,1179.5C 291.596,1193.27 293.429,1206.93 296,1220.5C 299.136,1227.66 304.303,1229.49 311.5,1226C 324.333,1225.83 337.167,1225.67 350,1225.5C 380.171,1226.06 410.337,1226.73 440.5,1227.5C 440.334,1234.17 440.5,1240.84 441,1247.5C 443.487,1252.83 447.653,1255.16 453.5,1254.5C 480.167,1254.5 506.833,1254.5 533.5,1254.5C 505.288,1256.88 492.455,1272.22 495,1300.5C 505.095,1325.46 522.595,1332.62 547.5,1322C 550.312,1320.02 552.978,1317.86 555.5,1315.5C 564.782,1325.31 576.115,1328.81 589.5,1326C 596.584,1324.29 602.584,1320.79 607.5,1315.5C 618.845,1326.65 632.178,1329.65 647.5,1324.5C 648.671,1346.66 649.338,1368.99 649.5,1391.5C 490.833,1391.5 332.167,1391.5 173.5,1391.5C 171.832,1389.66 170.332,1387.66 169,1385.5C 167.495,1260.84 167.162,1136.17 168,1011.5C 169.907,949.644 173.573,887.644 179,825.5C 146.277,763.267 140.443,698.6 161.5,631.5C 166.485,640.131 171.485,648.798 176.5,657.5C 171.116,679.476 169.116,701.81 170.5,724.5C 169.082,728.919 169.082,730.919 170.5,730.5C 171.434,731.568 171.768,732.901 171.5,734.5C 170.462,740.31 170.462,741.31 171.5,737.5C 172.461,739.265 172.795,741.265 172.5,743.5C 173.461,745.265 173.795,747.265 173.5,749.5C 172.577,753.472 172.577,753.806 173.5,750.5C 174.434,751.568 174.768,752.901 174.5,754.5C 175.451,755.919 175.784,757.585 175.5,759.5C 174.493,762.143 174.493,762.477 175.5,760.5C 176.404,761.209 176.737,762.209 176.5,763.5C 175.266,765.048 175.266,765.715 176.5,765.5C 177.338,765.842 177.672,766.508 177.5,767.5C 176.266,769.048 176.266,769.715 177.5,769.5C 178.338,769.842 178.672,770.508 178.5,771.5C 177.493,774.143 177.493,774.477 178.5,772.5C 179.404,773.209 179.737,774.209 179.5,775.5C 180.404,776.209 180.737,777.209 180.5,778.5C 179.167,779.167 179.167,779.833 180.5,780.5C 181.167,780.5 181.5,780.833 181.5,781.5C 180.356,782.849 180.356,783.183 181.5,782.5C 182.338,782.842 182.672,783.508 182.5,784.5C 181.356,785.849 181.356,786.183 182.5,785.5C 183.338,785.842 183.672,786.508 183.5,787.5C 182.356,788.849 182.356,789.183 183.5,788.5C 200.677,836.848 232.677,871.681 279.5,893C 310.082,904.162 341.415,906.495 373.5,900C 386.565,897.561 399.232,894.061 411.5,889.5C 484.144,867.69 529.644,820.024 548,746.5C 555.313,708.154 555.313,669.82 548,631.5C 546.044,625.876 542.877,621.043 538.5,617C 532.263,613.869 525.929,611.036 519.5,608.5C 524.229,603.439 529.562,599.106 535.5,595.5 Z"/></g>
<g><path style="opacity:1" fill="#dbdbdb" d="M 1098.5,594.5 C 1104.73,603.956 1110.23,613.956 1115,624.5C 1137.39,683.409 1136.72,742.076 1113,800.5C 1091.14,849.361 1054.98,882.528 1004.5,900C 964.186,909.195 924.853,906.362 886.5,891.5C 888.06,891.481 889.56,891.148 891,890.5C 914.479,894.176 937.645,892.676 960.5,886C 993.865,875.661 1023.2,858.661 1048.5,835C 1064.05,821.466 1076.55,805.632 1086,787.5C 1111.91,730.619 1110.41,674.619 1081.5,619.5C 1086.93,610.956 1092.6,602.623 1098.5,594.5 Z"/></g>
<g><path style="opacity:1" fill="#1c1c1b" d="M 860.5,632.5 C 881.646,631.159 899.146,638.492 913,654.5C 925.543,676.895 922.377,697.062 903.5,715C 892.604,723.474 880.27,727.141 866.5,726C 855.113,722.943 846.28,716.443 840,706.5C 831.218,690.289 829.218,673.289 834,655.5C 839.359,643.629 848.192,635.962 860.5,632.5 Z"/></g>
<g><path style="opacity:1" fill="#1c1c1b" d="M 359.5,638.5 C 370.045,639.358 378.545,644.024 385,652.5C 394.272,669.077 394.939,686.077 387,703.5C 378.872,724.292 363.705,733.459 341.5,731C 313.32,722.146 300.487,702.98 303,673.5C 310.335,654.758 323.835,643.425 343.5,639.5C 348.787,638.658 354.12,638.324 359.5,638.5 Z"/></g>
<g><path style="opacity:1" fill="#eff7fb" d="M 885.5,649.5 C 899.425,650.682 903.592,657.682 898,670.5C 893.827,674.191 888.993,675.358 883.5,674C 876.93,670.345 874.763,664.845 877,657.5C 879.074,653.923 881.907,651.256 885.5,649.5 Z"/></g>
<g><path style="opacity:1" fill="#eff6fa" d="M 329.5,655.5 C 337.438,653.721 343.271,656.387 347,663.5C 347.462,675.702 341.629,680.869 329.5,679C 323.636,675.434 321.47,670.267 323,663.5C 324.305,660.039 326.471,657.372 329.5,655.5 Z"/></g>
<g><path style="opacity:1" fill="#dbdbdb" d="M 176.5,657.5 C 183.543,665.876 190.209,674.543 196.5,683.5C 191.846,727.545 201.346,768.212 225,805.5C 249.525,835.027 279.025,858.194 313.5,875C 344.843,889.373 377.51,894.206 411.5,889.5C 399.232,894.061 386.565,897.561 373.5,900C 341.415,906.495 310.082,904.162 279.5,893C 232.677,871.681 200.677,836.848 183.5,788.5C 183.5,788.167 183.5,787.833 183.5,787.5C 183.672,786.508 183.338,785.842 182.5,785.5C 182.5,785.167 182.5,784.833 182.5,784.5C 182.672,783.508 182.338,782.842 181.5,782.5C 181.5,782.167 181.5,781.833 181.5,781.5C 181.5,780.833 181.167,780.5 180.5,780.5C 180.5,779.833 180.5,779.167 180.5,778.5C 180.737,777.209 180.404,776.209 179.5,775.5C 179.737,774.209 179.404,773.209 178.5,772.5C 178.5,772.167 178.5,771.833 178.5,771.5C 178.672,770.508 178.338,769.842 177.5,769.5C 177.5,768.833 177.5,768.167 177.5,767.5C 177.672,766.508 177.338,765.842 176.5,765.5C 176.5,764.833 176.5,764.167 176.5,763.5C 176.737,762.209 176.404,761.209 175.5,760.5C 175.5,760.167 175.5,759.833 175.5,759.5C 175.784,757.585 175.451,755.919 174.5,754.5C 174.768,752.901 174.434,751.568 173.5,750.5C 173.5,750.167 173.5,749.833 173.5,749.5C 173.795,747.265 173.461,745.265 172.5,743.5C 172.795,741.265 172.461,739.265 171.5,737.5C 171.5,736.5 171.5,735.5 171.5,734.5C 171.768,732.901 171.434,731.568 170.5,730.5C 170.5,728.5 170.5,726.5 170.5,724.5C 169.116,701.81 171.116,679.476 176.5,657.5 Z"/></g>
<g><path style="opacity:1" fill="#1c1c1a" d="M 743.5,883.5 C 736.957,892.107 728.291,897.107 717.5,898.5C 711.5,898.5 705.5,898.5 699.5,898.5C 699.5,901.833 699.5,905.167 699.5,908.5C 698.998,916.515 698.331,924.515 697.5,932.5C 695.49,941.338 691.99,949.671 687,957.5C 685.961,958.71 684.794,959.71 683.5,960.5C 679.4,963.709 674.733,965.875 669.5,967C 655.191,969.652 640.857,969.985 626.5,968C 620.249,966.208 614.582,963.374 609.5,959.5C 602.528,952.222 598.194,943.556 596.5,933.5C 594.897,924.582 594.23,915.582 594.5,906.5C 574.28,910.325 558.28,903.991 546.5,887.5C 539.736,871.144 539.903,854.811 547,838.5C 554.027,821.814 565.027,808.48 580,798.5C 579.484,792.885 579.484,787.218 580,781.5C 587.578,768.609 598.745,760.442 613.5,757C 638.024,751.141 662.024,752.808 685.5,762C 698.331,768.162 703.998,778.329 702.5,792.5C 709.611,794.111 715.944,797.278 721.5,802C 736.522,814.21 746.355,829.71 751,848.5C 752.781,861.167 750.281,872.834 743.5,883.5 Z"/></g>
<g><path style="opacity:1" fill="#595755" d="M 654.5,815.5 C 641.039,813.685 630.206,807.352 622,796.5C 618.442,787.854 620.609,781.021 628.5,776C 631.391,774.726 634.058,773.226 636.5,771.5C 651.428,770.1 665.761,772.6 679.5,779C 683.613,781.394 685.446,784.894 685,789.5C 679.253,803.418 669.086,812.085 654.5,815.5 Z"/></g>
<g><path style="opacity:1" fill="#444241" d="M 636.5,771.5 C 634.058,773.226 631.391,774.726 628.5,776C 620.609,781.021 618.442,787.854 622,796.5C 630.206,807.352 641.039,813.685 654.5,815.5C 633.615,820.041 615.782,814.374 601,798.5C 594.277,790.887 595.443,784.72 604.5,780C 614.39,774.203 625.057,771.369 636.5,771.5 Z"/></g>
<g><path style="opacity:1" fill="#1c1c1a" d="M 659.5,777.5 C 669.032,778.698 674.698,784.031 676.5,793.5C 676.977,797.518 675.31,799.351 671.5,799C 669.929,795.929 668.429,792.762 667,789.5C 664.819,786.786 662.153,784.786 659,783.5C 658.322,781.402 658.489,779.402 659.5,777.5 Z"/></g>
<g><path style="opacity:1" fill="#cbbcab" d="M 658.5,873.5 C 655.851,871.891 652.851,871.057 649.5,871C 634.469,870.855 619.469,870.188 604.5,869C 598.545,866.427 597.045,862.261 600,856.5C 606.635,845.423 616.469,839.256 629.5,838C 638.185,837.164 646.852,836.164 655.5,835C 656.416,834.722 657.082,834.222 657.5,833.5C 672.828,829.837 685.161,821.671 694.5,809C 695.833,808.333 697.167,808.333 698.5,809C 721.619,820.427 733.119,838.927 733,864.5C 730.905,872.927 725.739,878.427 717.5,881C 711.833,881.667 706.167,881.667 700.5,881C 686.793,876.907 672.793,874.407 658.5,873.5 Z"/></g>
<g><path style="opacity:1" fill="#958b7f" d="M 657.5,833.5 C 657.082,834.222 656.416,834.722 655.5,835C 646.852,836.164 638.185,837.164 629.5,838C 616.469,839.256 606.635,845.423 600,856.5C 597.045,862.261 598.545,866.427 604.5,869C 619.469,870.188 634.469,870.855 649.5,871C 652.851,871.057 655.851,871.891 658.5,873.5C 652.491,873.334 646.491,873.501 640.5,874C 623.787,877.793 607.454,882.793 591.5,889C 564.504,890.587 554.337,878.087 561,851.5C 566.356,835.414 576.023,822.748 590,813.5C 609.184,831.091 631.684,837.757 657.5,833.5 Z"/></g>
<g><path style="opacity:1" fill="#a88cb7" d="M 743.5,883.5 C 741.928,892.26 737.595,899.426 730.5,905C 724.568,907.533 718.568,909.866 712.5,912C 706.724,917.043 702.558,923.21 700,930.5C 699.292,931.381 698.458,932.047 697.5,932.5C 698.331,924.515 698.998,916.515 699.5,908.5C 700.477,905.713 700.81,902.713 700.5,899.5C 706.358,899.822 712.025,899.489 717.5,898.5C 728.291,897.107 736.957,892.107 743.5,883.5 Z"/></g>
<g><path style="opacity:1" fill="#b9b9b9" d="M 681.5,894.5 C 676.954,894.268 672.621,895.101 668.5,897C 662.264,901.734 656.931,907.234 652.5,913.5C 651.307,906.235 650.64,898.901 650.5,891.5C 661.151,890.825 671.485,891.825 681.5,894.5 Z"/></g>
<g><path style="opacity:1" fill="#fbfbfb" d="M 681.5,894.5 C 683.046,911.186 680.88,927.519 675,943.5C 669.067,949.203 661.9,951.87 653.5,951.5C 654.588,938.814 654.255,926.147 652.5,913.5C 656.931,907.234 662.264,901.734 668.5,897C 672.621,895.101 676.954,894.268 681.5,894.5 Z"/></g>
<g><path style="opacity:1" fill="#b8b8b8" d="M 640.5,908.5 C 637.675,908.081 635.509,909.081 634,911.5C 628.56,919.696 626.56,928.696 628,938.5C 629.463,942.423 630.63,946.423 631.5,950.5C 623.892,949.108 618.726,944.775 616,937.5C 612.494,925.372 611.661,913.039 613.5,900.5C 621.888,896.814 630.555,894.148 639.5,892.5C 639.218,897.927 639.551,903.26 640.5,908.5 Z"/></g>
<g><path style="opacity:1" fill="#a88cb7" d="M 546.5,887.5 C 558.28,903.991 574.28,910.325 594.5,906.5C 594.23,915.582 594.897,924.582 596.5,933.5C 595.778,933.082 595.278,932.416 595,931.5C 594.667,932.167 594.333,932.833 594,933.5C 591.193,928.698 587.693,924.531 583.5,921C 577.963,918.626 572.297,916.626 566.5,915C 564.5,913.667 562.5,912.333 560.5,911C 555.052,904.605 550.219,897.772 546,890.5C 545.53,889.423 545.697,888.423 546.5,887.5 Z"/></g>
<g><path style="opacity:1" fill="#544959" d="M 717.5,898.5 C 712.025,899.489 706.358,899.822 700.5,899.5C 700.81,902.713 700.477,905.713 699.5,908.5C 699.5,905.167 699.5,901.833 699.5,898.5C 705.5,898.5 711.5,898.5 717.5,898.5 Z"/></g>
<g><path style="opacity:1" fill="#f6f6f6" d="M 640.5,908.5 C 643.272,922.732 643.939,937.066 642.5,951.5C 638.629,951.815 634.962,951.482 631.5,950.5C 630.63,946.423 629.463,942.423 628,938.5C 626.56,928.696 628.56,919.696 634,911.5C 635.509,909.081 637.675,908.081 640.5,908.5 Z"/></g>
<g><path style="opacity:1" fill="#a88cb7" d="M 609.5,959.5 C 614.582,963.374 620.249,966.208 626.5,968C 640.857,969.985 655.191,969.652 669.5,967C 674.733,965.875 679.4,963.709 683.5,960.5C 683.703,962.39 683.037,963.89 681.5,965C 658.811,977.625 636.144,977.625 613.5,965C 611.536,963.549 610.203,961.716 609.5,959.5 Z"/></g>
<g><path style="opacity:1" fill="#262626" d="M 647.5,1019.5 C 685.86,1019.8 724.193,1020.97 762.5,1023C 809.31,1025.77 855.644,1031.27 901.5,1039.5C 898.386,1040.96 895.052,1042.12 891.5,1043C 854.426,1046.57 818.759,1055.57 784.5,1070C 767.719,1077.29 754.219,1088.46 744,1103.5C 741.78,1108.32 740.28,1113.32 739.5,1118.5C 735.002,1114.17 730.335,1110 725.5,1106C 720.899,1103.71 716.566,1104.04 712.5,1107C 703.488,1115.53 699.488,1126.03 700.5,1138.5C 700.601,1142.87 700.935,1147.2 701.5,1151.5C 698.214,1152.21 694.881,1152.54 691.5,1152.5C 695.899,1132.9 688.232,1124.57 668.5,1127.5C 668.965,1113.4 668.465,1099.4 667,1085.5C 665.457,1083.62 663.624,1082.12 661.5,1081C 649.838,1080.5 638.171,1080.33 626.5,1080.5C 633.313,1079.51 640.313,1079.18 647.5,1079.5C 647.5,1059.5 647.5,1039.5 647.5,1019.5 Z"/></g>
<g><path style="opacity:1" fill="#030202" d="M 962.5,1051.5 C 985.663,1085.77 993.829,1123.44 987,1164.5C 986.727,1166.33 985.893,1167.83 984.5,1169C 961.884,1170.53 939.218,1172.2 916.5,1174C 896.484,1176.87 876.484,1179.87 856.5,1183C 835.443,1185.29 814.443,1184.96 793.5,1182C 782.442,1179.5 772.442,1175 763.5,1168.5C 761.167,1166.5 758.833,1164.5 756.5,1162.5C 754.829,1160.36 753.162,1158.36 751.5,1156.5C 748.917,1153 746.584,1149.34 744.5,1145.5C 743.833,1144.17 743.167,1142.83 742.5,1141.5C 740.028,1134.05 739.028,1126.38 739.5,1118.5C 740.28,1113.32 741.78,1108.32 744,1103.5C 754.219,1088.46 767.719,1077.29 784.5,1070C 818.759,1055.57 854.426,1046.57 891.5,1043C 895.052,1042.12 898.386,1040.96 901.5,1039.5C 902.833,1039.5 904.167,1039.5 905.5,1039.5C 908.152,1039.59 910.485,1038.92 912.5,1037.5C 920.088,1035.36 927.754,1033.53 935.5,1032C 938.227,1031.18 940.894,1031.35 943.5,1032.5C 950.188,1038.52 956.521,1044.85 962.5,1051.5 Z"/></g>
<g><path style="opacity:1" fill="#62516b" d="M 912.5,1037.5 C 910.485,1038.92 908.152,1039.59 905.5,1039.5C 907.515,1038.08 909.848,1037.41 912.5,1037.5 Z"/></g>
<g><path style="opacity:1" fill="#fdd09f" d="M 974.5,1123.5 C 974.5,1126.83 974.5,1130.17 974.5,1133.5C 954.642,1138.17 934.642,1142.34 914.5,1146C 885.518,1147.54 856.518,1147.87 827.5,1147C 810.692,1145.37 794.359,1141.7 778.5,1136C 770.911,1132.28 764.078,1127.45 758,1121.5C 756.589,1119.35 755.755,1117.02 755.5,1114.5C 761.315,1105.19 768.981,1097.69 778.5,1092C 798.319,1081.09 819.319,1073.59 841.5,1069.5C 848.493,1068.75 855.159,1067.09 861.5,1064.5C 874.747,1064.01 887.747,1062.01 900.5,1058.5C 904.534,1058.48 908.201,1057.48 911.5,1055.5C 919.719,1053.1 928.052,1051.1 936.5,1049.5C 937.938,1049.72 939.271,1050.22 940.5,1051C 960.732,1070.81 972.066,1094.97 974.5,1123.5 Z"/></g>
<g><path style="opacity:1" fill="#252525" d="M 962.5,1051.5 C 1009.2,1061.51 1054.2,1076.51 1097.5,1096.5C 1098.17,1097.83 1098.83,1097.83 1099.5,1096.5C 1102.5,1099.43 1106,1101.76 1110,1103.5C 1109.26,1199.5 1108.1,1295.5 1106.5,1391.5C 954.167,1391.5 801.833,1391.5 649.5,1391.5C 649.338,1368.99 648.671,1346.66 647.5,1324.5C 647.917,1323.88 648.584,1323.54 649.5,1323.5C 656.477,1327.42 663.477,1327.42 670.5,1323.5C 678.599,1328.16 685.933,1327.16 692.5,1320.5C 705.622,1328.48 718.788,1328.48 732,1320.5C 737.743,1326.6 744.577,1328.1 752.5,1325C 756.636,1322.2 759.136,1318.37 760,1313.5C 760.333,1305.17 760.667,1296.83 761,1288.5C 764.259,1286.86 767.759,1285.69 771.5,1285C 779.29,1279.62 781.457,1272.46 778,1263.5C 771.894,1256.91 764.394,1254.74 755.5,1257C 748.861,1258.98 743.194,1262.48 738.5,1267.5C 728.098,1257.09 715.598,1253.43 701,1256.5C 695.918,1256.09 692.584,1253.42 691,1248.5C 688.913,1243.68 689.246,1239.01 692,1234.5C 707.209,1223.62 720.042,1210.46 730.5,1195C 744.261,1194.96 757.927,1194.3 771.5,1193C 776.756,1187.92 776.756,1182.92 771.5,1178C 767.615,1176.91 763.782,1175.74 760,1174.5C 759.333,1173.83 759.333,1173.17 760,1172.5C 762.071,1171.9 763.238,1170.56 763.5,1168.5C 772.442,1175 782.442,1179.5 793.5,1182C 814.443,1184.96 835.443,1185.29 856.5,1183C 876.484,1179.87 896.484,1176.87 916.5,1174C 939.218,1172.2 961.884,1170.53 984.5,1169C 985.893,1167.83 986.727,1166.33 987,1164.5C 993.829,1123.44 985.663,1085.77 962.5,1051.5 Z"/></g>
<g><path style="opacity:1" fill="#9c8162" d="M 911.5,1055.5 C 908.201,1057.48 904.534,1058.48 900.5,1058.5C 903.907,1056.93 907.573,1055.93 911.5,1055.5 Z"/></g>
<g><path style="opacity:1" fill="#41372a" d="M 528.5,1059.5 C 527.188,1063.42 526.188,1067.42 525.5,1071.5C 531.652,1070.41 536.818,1072.07 541,1076.5C 541.667,1126.83 541.667,1177.17 541,1227.5C 539.833,1230 538,1231.83 535.5,1233C 511.493,1233.17 487.493,1233.67 463.5,1234.5C 460.153,1241.19 456.82,1247.86 453.5,1254.5C 447.653,1255.16 443.487,1252.83 441,1247.5C 440.5,1240.84 440.334,1234.17 440.5,1227.5C 443.053,1226.75 445.72,1226.08 448.5,1225.5C 449.031,1227.62 450.365,1229.12 452.5,1230C 479.167,1230.67 505.833,1230.67 532.5,1230C 535.196,1229.31 537.363,1227.81 539,1225.5C 539.667,1176.83 539.667,1128.17 539,1079.5C 535.161,1075.16 530.328,1073.5 524.5,1074.5C 500.831,1074.33 477.164,1074.5 453.5,1075C 451.376,1076.12 449.543,1077.62 448,1079.5C 447.5,1087.83 447.334,1096.16 447.5,1104.5C 444.772,1104.83 442.438,1104.16 440.5,1102.5C 440.333,1090.5 440.5,1078.5 441,1066.5C 442.5,1063.67 444.667,1061.5 447.5,1060C 474.498,1059.5 501.498,1059.33 528.5,1059.5 Z"/></g>
<g><path style="opacity:1" fill="#2c251b" d="M 528.5,1059.5 C 536.157,1057.69 541.99,1060.02 546,1066.5C 546.5,1089.83 546.667,1113.16 546.5,1136.5C 546.5,1145.5 546.5,1154.5 546.5,1163.5C 546.5,1164.83 546.5,1166.17 546.5,1167.5C 546.5,1172.5 546.5,1177.5 546.5,1182.5C 546.5,1183.5 546.5,1184.5 546.5,1185.5C 546.5,1190.83 546.5,1196.17 546.5,1201.5C 546.5,1204.17 546.5,1206.83 546.5,1209.5C 546.334,1215.51 546.501,1221.51 547,1227.5C 551.391,1231.39 555.224,1235.72 558.5,1240.5C 554.575,1241 550.575,1241 546.5,1240.5C 546.982,1249.68 542.649,1254.35 533.5,1254.5C 506.833,1254.5 480.167,1254.5 453.5,1254.5C 456.82,1247.86 460.153,1241.19 463.5,1234.5C 487.493,1233.67 511.493,1233.17 535.5,1233C 538,1231.83 539.833,1230 541,1227.5C 541.667,1177.17 541.667,1126.83 541,1076.5C 536.818,1072.07 531.652,1070.41 525.5,1071.5C 526.188,1067.42 527.188,1063.42 528.5,1059.5 Z"/></g>
<g><path style="opacity:1" fill="#ac8e6c" d="M 861.5,1064.5 C 855.159,1067.09 848.493,1068.75 841.5,1069.5C 847.906,1067.23 854.573,1065.57 861.5,1064.5 Z"/></g>
<g><path style="opacity:1" fill="#7b6e5f" d="M 524.5,1074.5 C 519.312,1091.56 513.812,1108.56 508,1125.5C 507.623,1126.94 506.79,1127.94 505.5,1128.5C 487.526,1117.18 468.193,1109.18 447.5,1104.5C 447.334,1096.16 447.5,1087.83 448,1079.5C 449.543,1077.62 451.376,1076.12 453.5,1075C 477.164,1074.5 500.831,1074.33 524.5,1074.5 Z"/></g>
<g><path style="opacity:1" fill="#6c5f4e" d="M 524.5,1074.5 C 530.328,1073.5 535.161,1075.16 539,1079.5C 539.667,1128.17 539.667,1176.83 539,1225.5C 537.363,1227.81 535.196,1229.31 532.5,1230C 505.833,1230.67 479.167,1230.67 452.5,1230C 450.365,1229.12 449.031,1227.62 448.5,1225.5C 468.837,1225.01 487.17,1218.84 503.5,1207C 518.872,1193.11 525.372,1175.94 523,1155.5C 520.164,1144.48 514.331,1135.48 505.5,1128.5C 506.79,1127.94 507.623,1126.94 508,1125.5C 513.812,1108.56 519.312,1091.56 524.5,1074.5 Z"/></g>
<g><path style="opacity:1" fill="#e1e2e3" d="M 626.5,1080.5 C 638.171,1080.33 649.838,1080.5 661.5,1081C 663.624,1082.12 665.457,1083.62 667,1085.5C 668.465,1099.4 668.965,1113.4 668.5,1127.5C 688.232,1124.57 695.899,1132.9 691.5,1152.5C 694.881,1152.54 698.214,1152.21 701.5,1151.5C 700.935,1147.2 700.601,1142.87 700.5,1138.5C 699.488,1126.03 703.488,1115.53 712.5,1107C 716.566,1104.04 720.899,1103.71 725.5,1106C 730.335,1110 735.002,1114.17 739.5,1118.5C 739.028,1126.38 740.028,1134.05 742.5,1141.5C 740.833,1141.5 739.167,1141.5 737.5,1141.5C 735.079,1131.51 729.745,1123.34 721.5,1117C 720.5,1116.33 719.5,1116.33 718.5,1117C 713.106,1123.1 710.773,1130.27 711.5,1138.5C 711.233,1145.2 712.9,1151.36 716.5,1157C 711.483,1159.78 706.15,1161.78 700.5,1163C 693.842,1163.5 687.175,1163.67 680.5,1163.5C 680.5,1155.5 680.5,1147.5 680.5,1139.5C 672.833,1139.5 665.167,1139.5 657.5,1139.5C 657.5,1123.5 657.5,1107.5 657.5,1091.5C 647.833,1091.5 638.167,1091.5 628.5,1091.5C 628.5,1099.5 628.5,1107.5 628.5,1115.5C 612.833,1115.5 597.167,1115.5 581.5,1115.5C 581.5,1123.5 581.5,1131.5 581.5,1139.5C 573.833,1139.5 566.167,1139.5 558.5,1139.5C 558.5,1147.5 558.5,1155.5 558.5,1163.5C 554.5,1163.5 550.5,1163.5 546.5,1163.5C 546.5,1154.5 546.5,1145.5 546.5,1136.5C 548.315,1132.52 551.315,1129.69 555.5,1128C 560.489,1127.5 565.489,1127.33 570.5,1127.5C 570.334,1122.16 570.501,1116.82 571,1111.5C 572.892,1107.94 575.725,1105.44 579.5,1104C 592.162,1103.5 604.829,1103.33 617.5,1103.5C 617.334,1098.16 617.501,1092.82 618,1087.5C 619.805,1083.86 622.638,1081.52 626.5,1080.5 Z"/></g>
<g><path style="opacity:1" fill="#100d0a" d="M 927.5,1087.5 C 928.833,1087.5 930.167,1087.5 931.5,1087.5C 931.945,1090.36 931.278,1092.86 929.5,1095C 924.734,1097.57 919.734,1098.07 914.5,1096.5C 913.515,1094.9 913.349,1093.24 914,1091.5C 918.133,1090.71 922.3,1089.88 926.5,1089C 927.056,1088.62 927.389,1088.12 927.5,1087.5 Z"/></g>
<g><path style="opacity:1" fill="#7a6783" d="M 1098.5,1064.5 C 1099.49,1074.99 1099.83,1085.65 1099.5,1096.5C 1098.83,1097.83 1098.17,1097.83 1097.5,1096.5C 1098.49,1086.01 1098.83,1075.35 1098.5,1064.5 Z"/></g>
<g><path style="opacity:1" fill="#020201" d="M 440.5,1102.5 C 442.438,1104.16 444.772,1104.83 447.5,1104.5C 468.193,1109.18 487.526,1117.18 505.5,1128.5C 514.331,1135.48 520.164,1144.48 523,1155.5C 525.372,1175.94 518.872,1193.11 503.5,1207C 487.17,1218.84 468.837,1225.01 448.5,1225.5C 445.72,1226.08 443.053,1226.75 440.5,1227.5C 410.337,1226.73 380.171,1226.06 350,1225.5C 337.167,1225.67 324.333,1225.83 311.5,1226C 304.303,1229.49 299.136,1227.66 296,1220.5C 293.429,1206.93 291.596,1193.27 290.5,1179.5C 290.697,1145.3 302.364,1115.8 325.5,1091C 342.927,1091.87 360.261,1093.87 377.5,1097C 398.646,1097.32 419.646,1099.15 440.5,1102.5 Z"/></g>
<g><path style="opacity:1" fill="#16130f" d="M 895.5,1089.5 C 900.068,1089.08 901.568,1091.08 900,1095.5C 891.297,1100.58 882.297,1101.58 873,1098.5C 872.257,1096.56 872.424,1094.73 873.5,1093C 878.833,1092.67 884.167,1092.33 889.5,1092C 891.723,1091.43 893.723,1090.6 895.5,1089.5 Z"/></g>
<g><path style="opacity:1" fill="#3b5159" d="M 742.5,1141.5 C 743.167,1142.83 743.833,1144.17 744.5,1145.5C 740.669,1145.42 737.002,1146.08 733.5,1147.5C 733.443,1136.72 729.109,1128.05 720.5,1121.5C 716.151,1125.72 714.485,1130.89 715.5,1137C 714.765,1145.08 717.099,1152.08 722.5,1158C 717.33,1161.62 711.663,1164.28 705.5,1166C 652.538,1167.48 599.538,1167.98 546.5,1167.5C 546.5,1166.17 546.5,1164.83 546.5,1163.5C 550.5,1163.5 554.5,1163.5 558.5,1163.5C 558.5,1155.5 558.5,1147.5 558.5,1139.5C 566.167,1139.5 573.833,1139.5 581.5,1139.5C 581.5,1131.5 581.5,1123.5 581.5,1115.5C 597.167,1115.5 612.833,1115.5 628.5,1115.5C 628.5,1107.5 628.5,1099.5 628.5,1091.5C 638.167,1091.5 647.833,1091.5 657.5,1091.5C 657.5,1107.5 657.5,1123.5 657.5,1139.5C 665.167,1139.5 672.833,1139.5 680.5,1139.5C 680.5,1147.5 680.5,1155.5 680.5,1163.5C 687.175,1163.67 693.842,1163.5 700.5,1163C 706.15,1161.78 711.483,1159.78 716.5,1157C 712.9,1151.36 711.233,1145.2 711.5,1138.5C 710.773,1130.27 713.106,1123.1 718.5,1117C 719.5,1116.33 720.5,1116.33 721.5,1117C 729.745,1123.34 735.079,1131.51 737.5,1141.5C 739.167,1141.5 740.833,1141.5 742.5,1141.5 Z"/></g>
<g><path style="opacity:1" fill="#fdd19f" d="M 508.5,1154.5 C 505.786,1159.42 502.452,1163.92 498.5,1168C 487.56,1175.8 475.56,1181.47 462.5,1185C 410.193,1198.6 357.526,1200.43 304.5,1190.5C 301.999,1160.15 310.166,1133.15 329,1109.5C 329.956,1108.11 331.289,1107.44 333,1107.5C 356.301,1111.93 379.801,1114.43 403.5,1115C 428.12,1117.06 452.12,1122.06 475.5,1130C 487.868,1134.05 498.368,1140.88 507,1150.5C 507.791,1151.74 508.291,1153.08 508.5,1154.5 Z"/></g>
<g><path style="opacity:1" fill="#090705" d="M 899.5,1114.5 C 905.176,1114.33 910.843,1114.5 916.5,1115C 917.576,1116.73 917.743,1118.56 917,1120.5C 911.584,1121.64 906.084,1121.81 900.5,1121C 898.316,1119.1 897.983,1116.94 899.5,1114.5 Z"/></g>
<g><path style="opacity:1" fill="#2ea5c8" d="M 633.5,1095.5 C 633.5,1102.17 633.5,1108.83 633.5,1115.5C 639.833,1115.5 646.167,1115.5 652.5,1115.5C 652.5,1108.83 652.5,1102.17 652.5,1095.5C 653.491,1102.31 653.825,1109.31 653.5,1116.5C 646.5,1116.5 639.5,1116.5 632.5,1116.5C 632.175,1109.31 632.509,1102.31 633.5,1095.5 Z"/></g>
<g><path style="opacity:1" fill="#2ac1ee" d="M 633.5,1095.5 C 639.833,1095.5 646.167,1095.5 652.5,1095.5C 652.5,1102.17 652.5,1108.83 652.5,1115.5C 646.167,1115.5 639.833,1115.5 633.5,1115.5C 633.5,1108.83 633.5,1102.17 633.5,1095.5 Z"/></g>
<g><path style="opacity:1" fill="#387488" d="M 649.5,1097.5 C 650.814,1099.92 651.481,1102.75 651.5,1106C 651.167,1108.83 650.833,1111.67 650.5,1114.5C 649.505,1108.87 649.171,1103.21 649.5,1097.5 Z"/></g>
<g><path style="opacity:1" fill="#347589" d="M 646.5,1097.5 C 647.814,1099.92 648.481,1102.75 648.5,1106C 648.167,1108.83 647.833,1111.67 647.5,1114.5C 646.505,1108.87 646.171,1103.21 646.5,1097.5 Z"/></g>
<g><path style="opacity:1" fill="#346c7d" d="M 643.5,1097.5 C 644.814,1099.92 645.481,1102.75 645.5,1106C 645.167,1108.83 644.833,1111.67 644.5,1114.5C 643.505,1108.87 643.171,1103.21 643.5,1097.5 Z"/></g>
<g><path style="opacity:1" fill="#346c7d" d="M 640.5,1097.5 C 641.814,1099.92 642.481,1102.75 642.5,1106C 642.167,1108.83 641.833,1111.67 641.5,1114.5C 640.505,1108.87 640.171,1103.21 640.5,1097.5 Z"/></g>
<g><path style="opacity:1" fill="#337f96" d="M 637.5,1097.5 C 638.814,1099.92 639.481,1102.75 639.5,1106C 639.167,1108.83 638.833,1111.67 638.5,1114.5C 637.505,1108.87 637.171,1103.21 637.5,1097.5 Z"/></g>
<g><path style="opacity:1" fill="#337f96" d="M 634.5,1097.5 C 635.814,1099.92 636.481,1102.75 636.5,1106C 636.167,1108.83 635.833,1111.67 635.5,1114.5C 634.505,1108.87 634.171,1103.21 634.5,1097.5 Z"/></g>
<g><path style="opacity:1" fill="#2099b9" d="M 585.5,1119.5 C 592.5,1119.5 599.5,1119.5 606.5,1119.5C 606.5,1126.5 606.5,1133.5 606.5,1140.5C 599.5,1140.5 592.5,1140.5 585.5,1140.5C 585.5,1133.5 585.5,1126.5 585.5,1119.5 Z"/></g>
<g><path style="opacity:1" fill="#36a2c4" d="M 609.5,1119.5 C 616.167,1119.5 622.833,1119.5 629.5,1119.5C 629.5,1126.5 629.5,1133.5 629.5,1140.5C 622.833,1140.5 616.167,1140.5 609.5,1140.5C 609.5,1133.5 609.5,1126.5 609.5,1119.5 Z"/></g>
<g><path style="opacity:1" fill="#199ec0" d="M 632.5,1119.5 C 639.5,1119.5 646.5,1119.5 653.5,1119.5C 653.5,1126.5 653.5,1133.5 653.5,1140.5C 646.5,1140.5 639.5,1140.5 632.5,1140.5C 632.5,1133.5 632.5,1126.5 632.5,1119.5 Z"/></g>
<g><path style="opacity:1" fill="#c9a57e" d="M 755.5,1114.5 C 755.755,1117.02 756.589,1119.35 758,1121.5C 764.078,1127.45 770.911,1132.28 778.5,1136C 794.359,1141.7 810.692,1145.37 827.5,1147C 856.518,1147.87 885.518,1147.54 914.5,1146C 934.642,1142.34 954.642,1138.17 974.5,1133.5C 974.5,1130.17 974.5,1126.83 974.5,1123.5C 975.644,1133.34 975.644,1143.34 974.5,1153.5C 940.598,1153.92 906.931,1156.92 873.5,1162.5C 870.171,1162.22 867.171,1162.88 864.5,1164.5C 856.454,1164.89 848.454,1165.73 840.5,1167C 821.036,1169.01 802.036,1167.01 783.5,1161C 767.044,1153.73 756.711,1141.4 752.5,1124C 752.427,1120.39 753.427,1117.22 755.5,1114.5 Z"/></g>
<g><path style="opacity:1" fill="#25758a" d="M 593.5,1121.5 C 594.814,1123.92 595.481,1126.75 595.5,1130C 595.167,1132.83 594.833,1135.67 594.5,1138.5C 593.505,1132.87 593.171,1127.21 593.5,1121.5 Z"/></g>
<g><path style="opacity:1" fill="#2b6676" d="M 596.5,1121.5 C 597.814,1123.92 598.481,1126.75 598.5,1130C 598.167,1132.83 597.833,1135.67 597.5,1138.5C 596.505,1132.87 596.171,1127.21 596.5,1121.5 Z"/></g>
<g><path style="opacity:1" fill="#2b6676" d="M 599.5,1121.5 C 600.814,1123.92 601.481,1126.75 601.5,1130C 601.167,1132.83 600.833,1135.67 600.5,1138.5C 599.505,1132.87 599.171,1127.21 599.5,1121.5 Z"/></g>
<g><path style="opacity:1" fill="#296d7f" d="M 602.5,1121.5 C 603.814,1123.92 604.481,1126.75 604.5,1130C 604.167,1132.83 603.833,1135.67 603.5,1138.5C 602.505,1132.87 602.171,1127.21 602.5,1121.5 Z"/></g>
<g><path style="opacity:1" fill="#387488" d="M 610.5,1121.5 C 611.814,1123.92 612.481,1126.75 612.5,1130C 612.167,1132.83 611.833,1135.67 611.5,1138.5C 610.505,1132.87 610.171,1127.21 610.5,1121.5 Z"/></g>
<g><path style="opacity:1" fill="#387488" d="M 613.5,1121.5 C 614.814,1123.92 615.481,1126.75 615.5,1130C 615.167,1132.83 614.833,1135.67 614.5,1138.5C 613.505,1132.87 613.171,1127.21 613.5,1121.5 Z"/></g>
<g><path style="opacity:1" fill="#25758a" d="M 634.5,1121.5 C 635.814,1123.92 636.481,1126.75 636.5,1130C 636.167,1132.83 635.833,1135.67 635.5,1138.5C 634.505,1132.87 634.171,1127.21 634.5,1121.5 Z"/></g>
<g><path style="opacity:1" fill="#25758a" d="M 637.5,1121.5 C 638.814,1123.92 639.481,1126.75 639.5,1130C 639.167,1132.83 638.833,1135.67 638.5,1138.5C 637.505,1132.87 637.171,1127.21 637.5,1121.5 Z"/></g>
<g><path style="opacity:1" fill="#2b6676" d="M 640.5,1121.5 C 641.814,1123.92 642.481,1126.75 642.5,1130C 642.167,1132.83 641.833,1135.67 641.5,1138.5C 640.505,1132.87 640.171,1127.21 640.5,1121.5 Z"/></g>
<g><path style="opacity:1" fill="#2b6676" d="M 643.5,1121.5 C 644.814,1123.92 645.481,1126.75 645.5,1130C 645.167,1132.83 644.833,1135.67 644.5,1138.5C 643.505,1132.87 643.171,1127.21 643.5,1121.5 Z"/></g>
<g><path style="opacity:1" fill="#296d7f" d="M 646.5,1121.5 C 647.814,1123.92 648.481,1126.75 648.5,1130C 648.167,1132.83 647.833,1135.67 647.5,1138.5C 646.505,1132.87 646.171,1127.21 646.5,1121.5 Z"/></g>
<g><path style="opacity:1" fill="#2ab7e9" d="M 733.5,1147.5 C 731.976,1151.2 729.81,1154.54 727,1157.5C 720.251,1165.08 713.417,1172.41 706.5,1179.5C 692.64,1184.61 678.64,1184.77 664.5,1180C 662.321,1178.74 660.321,1177.24 658.5,1175.5C 647.249,1183.86 634.916,1185.69 621.5,1181C 618.734,1179.53 616.234,1177.7 614,1175.5C 608.357,1180.07 601.857,1182.57 594.5,1183C 588.167,1183.67 581.833,1183.67 575.5,1183C 570.695,1182.23 566.361,1180.4 562.5,1177.5C 557.661,1180.64 552.327,1182.31 546.5,1182.5C 546.5,1177.5 546.5,1172.5 546.5,1167.5C 599.538,1167.98 652.538,1167.48 705.5,1166C 711.663,1164.28 717.33,1161.62 722.5,1158C 717.099,1152.08 714.765,1145.08 715.5,1137C 714.485,1130.89 716.151,1125.72 720.5,1121.5C 729.109,1128.05 733.443,1136.72 733.5,1147.5 Z"/></g>
<g><path style="opacity:1" fill="#0b0806" d="M 371.5,1142.5 C 378.84,1143.7 386.173,1143.7 393.5,1142.5C 395.739,1142.57 396.739,1143.74 396.5,1146C 396.646,1148.19 395.646,1149.52 393.5,1150C 387.5,1150.67 381.5,1150.67 375.5,1150C 370.847,1149.18 369.513,1146.68 371.5,1142.5 Z"/></g>
<g><path style="opacity:1" fill="#0e0c09" d="M 341.5,1142.5 C 344.355,1143.75 347.355,1144.75 350.5,1145.5C 352.909,1144.63 355.242,1144.63 357.5,1145.5C 359.136,1149.39 357.803,1151.55 353.5,1152C 348.771,1153.26 344.771,1152.09 341.5,1148.5C 340.377,1146.52 340.377,1144.52 341.5,1142.5 Z"/></g>
<g><path style="opacity:1" fill="#24778c" d="M 561.5,1142.5 C 568.833,1142.5 576.167,1142.5 583.5,1142.5C 583.5,1149.83 583.5,1157.17 583.5,1164.5C 576.167,1164.5 568.833,1164.5 561.5,1164.5C 561.5,1157.17 561.5,1149.83 561.5,1142.5 Z"/></g>
<g><path style="opacity:1" fill="#2a8daa" d="M 562.5,1143.5 C 569.167,1143.5 575.833,1143.5 582.5,1143.5C 582.5,1150.17 582.5,1156.83 582.5,1163.5C 575.833,1163.5 569.167,1163.5 562.5,1163.5C 562.5,1156.83 562.5,1150.17 562.5,1143.5 Z"/></g>
<g><path style="opacity:1" fill="#34abd0" d="M 585.5,1143.5 C 592.167,1143.5 598.833,1143.5 605.5,1143.5C 605.5,1150.17 605.5,1156.83 605.5,1163.5C 598.833,1163.5 592.167,1163.5 585.5,1163.5C 585.5,1156.83 585.5,1150.17 585.5,1143.5 Z"/></g>
<g><path style="opacity:1" fill="#3096b5" d="M 585.5,1143.5 C 592.313,1142.51 599.313,1142.18 606.5,1142.5C 606.5,1149.83 606.5,1157.17 606.5,1164.5C 599.313,1164.82 592.313,1164.49 585.5,1163.5C 592.167,1163.5 598.833,1163.5 605.5,1163.5C 605.5,1156.83 605.5,1150.17 605.5,1143.5C 598.833,1143.5 592.167,1143.5 585.5,1143.5 Z"/></g>
<g><path style="opacity:1" fill="#296e7f" d="M 608.5,1142.5 C 615.833,1142.5 623.167,1142.5 630.5,1142.5C 630.5,1149.83 630.5,1157.17 630.5,1164.5C 623.167,1164.5 615.833,1164.5 608.5,1164.5C 608.5,1157.17 608.5,1149.83 608.5,1142.5 Z"/></g>
<g><path style="opacity:1" fill="#2b8aa6" d="M 609.5,1143.5 C 616.167,1143.5 622.833,1143.5 629.5,1143.5C 629.5,1150.17 629.5,1156.83 629.5,1163.5C 622.833,1163.5 616.167,1163.5 609.5,1163.5C 609.5,1156.83 609.5,1150.17 609.5,1143.5 Z"/></g>
<g><path style="opacity:1" fill="#3099b8" d="M 632.5,1142.5 C 639.5,1142.5 646.5,1142.5 653.5,1142.5C 653.5,1149.83 653.5,1157.17 653.5,1164.5C 646.5,1164.5 639.5,1164.5 632.5,1164.5C 632.5,1157.17 632.5,1149.83 632.5,1142.5 Z"/></g>
<g><path style="opacity:1" fill="#31b3db" d="M 633.5,1143.5 C 639.833,1143.5 646.167,1143.5 652.5,1143.5C 652.5,1150.17 652.5,1156.83 652.5,1163.5C 646.167,1163.5 639.833,1163.5 633.5,1163.5C 633.5,1156.83 633.5,1150.17 633.5,1143.5 Z"/></g>
<g><path style="opacity:1" fill="#24778c" d="M 655.5,1142.5 C 662.833,1142.5 670.167,1142.5 677.5,1142.5C 677.5,1149.83 677.5,1157.17 677.5,1164.5C 670.167,1164.5 662.833,1164.5 655.5,1164.5C 655.5,1157.17 655.5,1149.83 655.5,1142.5 Z"/></g>
<g><path style="opacity:1" fill="#2b8ba6" d="M 656.5,1143.5 C 663.167,1143.5 669.833,1143.5 676.5,1143.5C 676.5,1150.17 676.5,1156.83 676.5,1163.5C 669.833,1163.5 663.167,1163.5 656.5,1163.5C 656.5,1156.83 656.5,1150.17 656.5,1143.5 Z"/></g>
<g><path style="opacity:1" fill="#296f81" d="M 563.5,1144.5 C 564.816,1147.09 565.483,1150.09 565.5,1153.5C 565.167,1156.5 564.833,1159.5 564.5,1162.5C 563.504,1156.54 563.171,1150.54 563.5,1144.5 Z"/></g>
<g><path style="opacity:1" fill="#33829a" d="M 593.5,1144.5 C 594.816,1147.09 595.483,1150.09 595.5,1153.5C 595.167,1156.5 594.833,1159.5 594.5,1162.5C 593.504,1156.54 593.171,1150.54 593.5,1144.5 Z"/></g>
<g><path style="opacity:1" fill="#356b7c" d="M 596.5,1145.5 C 597.812,1147.74 598.478,1150.41 598.5,1153.5C 598.167,1156.17 597.833,1158.83 597.5,1161.5C 596.505,1156.21 596.172,1150.87 596.5,1145.5 Z"/></g>
<g><path style="opacity:1" fill="#356b7c" d="M 599.5,1145.5 C 600.812,1147.74 601.478,1150.41 601.5,1153.5C 601.167,1156.17 600.833,1158.83 600.5,1161.5C 599.505,1156.21 599.172,1150.87 599.5,1145.5 Z"/></g>
<g><path style="opacity:1" fill="#34768b" d="M 602.5,1144.5 C 603.816,1147.09 604.483,1150.09 604.5,1153.5C 604.167,1156.5 603.833,1159.5 603.5,1162.5C 602.504,1156.54 602.171,1150.54 602.5,1144.5 Z"/></g>
<g><path style="opacity:1" fill="#33829a" d="M 634.5,1144.5 C 635.816,1147.09 636.483,1150.09 636.5,1153.5C 636.167,1156.5 635.833,1159.5 635.5,1162.5C 634.504,1156.54 634.171,1150.54 634.5,1144.5 Z"/></g>
<g><path style="opacity:1" fill="#33829a" d="M 637.5,1144.5 C 638.816,1147.09 639.483,1150.09 639.5,1153.5C 639.167,1156.5 638.833,1159.5 638.5,1162.5C 637.504,1156.54 637.171,1150.54 637.5,1144.5 Z"/></g>
<g><path style="opacity:1" fill="#356b7c" d="M 640.5,1145.5 C 641.812,1147.74 642.478,1150.41 642.5,1153.5C 642.167,1156.17 641.833,1158.83 641.5,1161.5C 640.505,1156.21 640.172,1150.87 640.5,1145.5 Z"/></g>
<g><path style="opacity:1" fill="#356b7c" d="M 643.5,1145.5 C 644.812,1147.74 645.478,1150.41 645.5,1153.5C 645.167,1156.17 644.833,1158.83 644.5,1161.5C 643.505,1156.21 643.172,1150.87 643.5,1145.5 Z"/></g>
<g><path style="opacity:1" fill="#34768b" d="M 646.5,1144.5 C 647.816,1147.09 648.483,1150.09 648.5,1153.5C 648.167,1156.5 647.833,1159.5 647.5,1162.5C 646.504,1156.54 646.171,1150.54 646.5,1144.5 Z"/></g>
<g><path style="opacity:1" fill="#11a8d8" d="M 744.5,1145.5 C 746.584,1149.34 748.917,1153 751.5,1156.5C 752.903,1159.3 751.903,1160.8 748.5,1161C 742.23,1162.15 735.897,1162.82 729.5,1163C 727.253,1169 724.586,1174.83 721.5,1180.5C 719.926,1181.63 718.259,1181.8 716.5,1181C 714.167,1179.83 711.833,1178.67 709.5,1177.5C 708.482,1178.19 707.482,1178.86 706.5,1179.5C 713.417,1172.41 720.251,1165.08 727,1157.5C 729.81,1154.54 731.976,1151.2 733.5,1147.5C 737.002,1146.08 740.669,1145.42 744.5,1145.5 Z"/></g>
<g><path style="opacity:1" fill="#c9a67e" d="M 508.5,1154.5 C 511.198,1158.36 512.031,1162.7 511,1167.5C 505.103,1187.06 492.27,1199.56 472.5,1205C 462.966,1207.39 453.3,1209.06 443.5,1210C 412.986,1210.29 382.486,1209.79 352,1208.5C 336.822,1208.58 321.655,1208.92 306.5,1209.5C 305.724,1203.18 305.058,1196.85 304.5,1190.5C 357.526,1200.43 410.193,1198.6 462.5,1185C 475.56,1181.47 487.56,1175.8 498.5,1168C 502.452,1163.92 505.786,1159.42 508.5,1154.5 Z"/></g>
<g><path style="opacity:1" fill="#3c525a" d="M 751.5,1156.5 C 753.162,1158.36 754.829,1160.36 756.5,1162.5C 748.429,1165.46 740.096,1167.46 731.5,1168.5C 729.774,1172.95 727.774,1177.29 725.5,1181.5C 735.239,1183.52 743.739,1181.19 751,1174.5C 751.251,1176.43 751.751,1178.27 752.5,1180C 755.795,1182.43 759.462,1184.1 763.5,1185C 749.821,1185.17 736.154,1185.67 722.5,1186.5C 701.069,1219.23 670.736,1237.73 631.5,1242C 613.788,1243.83 596.455,1242.17 579.5,1237C 565.847,1230.83 554.847,1221.67 546.5,1209.5C 546.5,1206.83 546.5,1204.17 546.5,1201.5C 548.474,1204.77 550.474,1208.1 552.5,1211.5C 561.658,1212.82 570.658,1212.82 579.5,1211.5C 585.596,1211.01 591.596,1210.01 597.5,1208.5C 597.719,1209.68 597.386,1210.68 596.5,1211.5C 594.664,1212.03 592.997,1212.69 591.5,1213.5C 579.582,1215.11 567.582,1215.94 555.5,1216C 572.824,1233.28 593.824,1240.78 618.5,1238.5C 661.286,1238.44 694.62,1220.94 718.5,1186C 661.168,1185.5 603.834,1185.33 546.5,1185.5C 546.5,1184.5 546.5,1183.5 546.5,1182.5C 552.327,1182.31 557.661,1180.64 562.5,1177.5C 566.361,1180.4 570.695,1182.23 575.5,1183C 581.833,1183.67 588.167,1183.67 594.5,1183C 601.857,1182.57 608.357,1180.07 614,1175.5C 616.234,1177.7 618.734,1179.53 621.5,1181C 634.916,1185.69 647.249,1183.86 658.5,1175.5C 660.321,1177.24 662.321,1178.74 664.5,1180C 678.64,1184.77 692.64,1184.61 706.5,1179.5C 707.482,1178.86 708.482,1178.19 709.5,1177.5C 711.833,1178.67 714.167,1179.83 716.5,1181C 718.259,1181.8 719.926,1181.63 721.5,1180.5C 724.586,1174.83 727.253,1169 729.5,1163C 735.897,1162.82 742.23,1162.15 748.5,1161C 751.903,1160.8 752.903,1159.3 751.5,1156.5 Z"/></g>
<g><path style="opacity:1" fill="#e4e5e6" d="M 756.5,1162.5 C 758.833,1164.5 761.167,1166.5 763.5,1168.5C 763.238,1170.56 762.071,1171.9 760,1172.5C 759.333,1173.17 759.333,1173.83 760,1174.5C 763.782,1175.74 767.615,1176.91 771.5,1178C 776.756,1182.92 776.756,1187.92 771.5,1193C 757.927,1194.3 744.261,1194.96 730.5,1195C 720.042,1210.46 707.209,1223.62 692,1234.5C 689.246,1239.01 688.913,1243.68 691,1248.5C 692.584,1253.42 695.918,1256.09 701,1256.5C 715.598,1253.43 728.098,1257.09 738.5,1267.5C 743.194,1262.48 748.861,1258.98 755.5,1257C 764.394,1254.74 771.894,1256.91 778,1263.5C 781.457,1272.46 779.29,1279.62 771.5,1285C 767.759,1285.69 764.259,1286.86 761,1288.5C 760.667,1296.83 760.333,1305.17 760,1313.5C 759.136,1318.37 756.636,1322.2 752.5,1325C 744.577,1328.1 737.743,1326.6 732,1320.5C 718.788,1328.48 705.622,1328.48 692.5,1320.5C 685.933,1327.16 678.599,1328.16 670.5,1323.5C 663.477,1327.42 656.477,1327.42 649.5,1323.5C 648.584,1323.54 647.917,1323.88 647.5,1324.5C 632.178,1329.65 618.845,1326.65 607.5,1315.5C 602.584,1320.79 596.584,1324.29 589.5,1326C 576.115,1328.81 564.782,1325.31 555.5,1315.5C 552.978,1317.86 550.312,1320.02 547.5,1322C 522.595,1332.62 505.095,1325.46 495,1300.5C 492.455,1272.22 505.288,1256.88 533.5,1254.5C 542.649,1254.35 546.982,1249.68 546.5,1240.5C 550.575,1241 554.575,1241 558.5,1240.5C 555.224,1235.72 551.391,1231.39 547,1227.5C 546.501,1221.51 546.334,1215.51 546.5,1209.5C 554.847,1221.67 565.847,1230.83 579.5,1237C 596.455,1242.17 613.788,1243.83 631.5,1242C 670.736,1237.73 701.069,1219.23 722.5,1186.5C 736.154,1185.67 749.821,1185.17 763.5,1185C 759.462,1184.1 755.795,1182.43 752.5,1180C 751.751,1178.27 751.251,1176.43 751,1174.5C 743.739,1181.19 735.239,1183.52 725.5,1181.5C 727.774,1177.29 729.774,1172.95 731.5,1168.5C 740.096,1167.46 748.429,1165.46 756.5,1162.5 Z"/></g>
<g><path style="opacity:1" fill="#5d4c3a" d="M 873.5,1162.5 C 870.727,1163.66 867.727,1164.32 864.5,1164.5C 867.171,1162.88 870.171,1162.22 873.5,1162.5 Z"/></g>
<g><path style="opacity:1" fill="#100d0a" d="M 367.5,1165.5 C 374.004,1165.14 375.671,1167.64 372.5,1173C 368.311,1173.34 364.144,1173.84 360,1174.5C 356.101,1172.73 355.601,1170.23 358.5,1167C 361.695,1166.82 364.695,1166.32 367.5,1165.5 Z"/></g>
<g><path style="opacity:1" fill="#1d9bc6" d="M 600.5,1223.5 C 598.19,1220.9 596.357,1217.9 595,1214.5C 593.989,1213.66 592.822,1213.33 591.5,1213.5C 592.997,1212.69 594.664,1212.03 596.5,1211.5C 597.386,1210.68 597.719,1209.68 597.5,1208.5C 591.596,1210.01 585.596,1211.01 579.5,1211.5C 573.897,1212.39 568.897,1211.22 564.5,1208C 558.955,1201.91 554.955,1194.91 552.5,1187C 600.167,1186.33 647.833,1186.33 695.5,1187C 667.605,1209.05 635.939,1221.22 600.5,1223.5 Z"/></g>
<g><path style="opacity:1" fill="#178bb7" d="M 546.5,1185.5 C 603.834,1185.33 661.168,1185.5 718.5,1186C 694.62,1220.94 661.286,1238.44 618.5,1238.5C 611.761,1234.45 605.761,1229.45 600.5,1223.5C 635.939,1221.22 667.605,1209.05 695.5,1187C 647.833,1186.33 600.167,1186.33 552.5,1187C 554.955,1194.91 558.955,1201.91 564.5,1208C 568.897,1211.22 573.897,1212.39 579.5,1211.5C 570.658,1212.82 561.658,1212.82 552.5,1211.5C 550.474,1208.1 548.474,1204.77 546.5,1201.5C 546.5,1196.17 546.5,1190.83 546.5,1185.5 Z"/></g>
<g><path style="opacity:1" fill="#bddae1" d="M 602.5,1197.5 C 610.241,1197.74 612.241,1201.24 608.5,1208C 601.51,1210.01 598.676,1207.51 600,1200.5C 600.698,1199.31 601.531,1198.31 602.5,1197.5 Z"/></g>
<g><path style="opacity:1" fill="#40565c" d="M 602.5,1199.5 C 604.984,1200.23 606.984,1201.73 608.5,1204C 606.687,1207.91 604.187,1208.41 601,1205.5C 600.252,1203.16 600.752,1201.16 602.5,1199.5 Z"/></g>
<g><path style="opacity:1" fill="#bedce1" d="M 591.5,1213.5 C 592.822,1213.33 593.989,1213.66 595,1214.5C 596.357,1217.9 598.19,1220.9 600.5,1223.5C 605.761,1229.45 611.761,1234.45 618.5,1238.5C 593.824,1240.78 572.824,1233.28 555.5,1216C 567.582,1215.94 579.582,1215.11 591.5,1213.5 Z"/></g>
<g><path style="opacity:1" fill="#c5c3c0" d="M 489.5,1244.5 C 488.368,1239.16 490.701,1237.33 496.5,1239C 500.174,1244.92 498.507,1247.59 491.5,1247C 490.244,1246.58 489.577,1245.75 489.5,1244.5 Z"/></g>
<g><path style="opacity:1" fill="#362f25" d="M 489.5,1244.5 C 489.8,1240.02 491.967,1238.69 496,1240.5C 496.494,1242.13 496.66,1243.8 496.5,1245.5C 494.05,1245.7 491.717,1245.37 489.5,1244.5 Z"/></g>
<g><path style="opacity:1" fill="#3b5057" d="M 543.5,1271.5 C 543.56,1272.04 543.893,1272.38 544.5,1272.5C 545.496,1266.54 545.829,1260.54 545.5,1254.5C 547.279,1252.66 549.612,1251.99 552.5,1252.5C 552.667,1267.84 552.5,1283.17 552,1298.5C 546.752,1312.06 536.919,1317.56 522.5,1315C 508.735,1308.97 503.235,1298.47 506,1283.5C 514.332,1266.81 526.832,1262.81 543.5,1271.5 Z"/></g>
<g><path style="opacity:1" fill="#3b4f56" d="M 657.5,1252.5 C 659.792,1252.24 661.959,1252.58 664,1253.5C 664.333,1262.5 664.667,1271.5 665,1280.5C 669.167,1276.33 673.333,1272.17 677.5,1268C 683.08,1266.74 684.913,1268.91 683,1274.5C 677.454,1279.71 672.288,1285.21 667.5,1291C 671.91,1297.42 677.077,1303.25 683,1308.5C 684.728,1315.11 682.562,1316.94 676.5,1314C 672.667,1310.17 668.833,1306.33 665,1302.5C 664.667,1306.17 664.333,1309.83 664,1313.5C 661.667,1316.17 659.333,1316.17 657,1313.5C 656.18,1293.09 656.346,1272.76 657.5,1252.5 Z"/></g>
<g><path style="opacity:1" fill="#929ca0" d="M 545.5,1254.5 C 545.829,1260.54 545.496,1266.54 544.5,1272.5C 543.893,1272.38 543.56,1272.04 543.5,1271.5C 544.167,1265.83 544.833,1260.17 545.5,1254.5 Z"/></g>
<g><path style="opacity:1" fill="#3d5158" d="M 573.5,1267.5 C 594.631,1265.14 605.131,1274.47 605,1295.5C 600.881,1311.16 590.715,1317.66 574.5,1315C 561.035,1309.24 555.535,1299.08 558,1284.5C 560.936,1276.73 566.102,1271.07 573.5,1267.5 Z"/></g>
<g><path style="opacity:1" fill="#3e5359" d="M 628.5,1266.5 C 635.445,1265.47 641.612,1267.14 647,1271.5C 646.987,1277.55 644.154,1279.05 638.5,1276C 623.558,1274.61 617.058,1281.44 619,1296.5C 620.833,1301 624,1304.17 628.5,1306C 634.275,1306.52 639.942,1306.19 645.5,1305C 648.532,1309.18 647.532,1312.18 642.5,1314C 619.939,1318.11 609.106,1308.61 610,1285.5C 613.017,1275.98 619.184,1269.65 628.5,1266.5 Z"/></g>
<g><path style="opacity:1" fill="#3d5158" d="M 707.5,1266.5 C 716.785,1265.87 724.618,1268.87 731,1275.5C 734.801,1280.5 733.967,1284.66 728.5,1288C 721.314,1293.76 714.314,1299.76 707.5,1306C 713.292,1306.52 718.958,1306.18 724.5,1305C 726.325,1306.47 726.825,1308.3 726,1310.5C 715.192,1317.65 704.859,1316.99 695,1308.5C 683.13,1289.62 687.297,1275.62 707.5,1266.5 Z"/></g>
<g><path style="opacity:1" fill="#3e5259" d="M 757.5,1267.5 C 760.85,1267.33 764.183,1267.5 767.5,1268C 768.576,1269.73 768.743,1271.56 768,1273.5C 764.741,1275.14 761.241,1276.31 757.5,1277C 752.851,1279.46 750.017,1283.29 749,1288.5C 748.832,1297.19 748.332,1305.85 747.5,1314.5C 745.031,1316.01 742.865,1315.67 741,1313.5C 740.333,1304.17 740.333,1294.83 741,1285.5C 743.592,1276.74 749.092,1270.74 757.5,1267.5 Z"/></g>
<g><path style="opacity:1" fill="#e4e6e7" d="M 523.5,1275.5 C 539,1274.29 545.833,1281.29 544,1296.5C 538.279,1307.07 530.113,1309.57 519.5,1304C 510.54,1293.11 511.874,1283.61 523.5,1275.5 Z"/></g>
<g><path style="opacity:1" fill="#e4e5e6" d="M 576.5,1275.5 C 593.498,1275.32 599.664,1283.32 595,1299.5C 586.035,1310.08 577.035,1310.08 568,1299.5C 563.745,1289.01 566.578,1281.01 576.5,1275.5 Z"/></g>
<g><path style="opacity:1" fill="#e2e4e5" d="M 706.5,1275.5 C 710.182,1275.33 713.848,1275.5 717.5,1276C 720.076,1276.78 722.076,1278.28 723.5,1280.5C 716.061,1287.39 708.394,1294.06 700.5,1300.5C 695.889,1294.92 695.389,1288.92 699,1282.5C 701.396,1279.93 703.896,1277.6 706.5,1275.5 Z"/></g>
</svg>
